<?xml version="1.0" encoding="UTF-8" standalone="no"?>
<!-- Created with Inkscape (http://www.inkscape.org/) -->

<svg
   width="210mm"
   height="297mm"
   viewBox="0 0 210 297"
   version="1.1"
   id="svg5"
   inkscape:version="1.1 (c68e22c387, 2021-05-23)"
   sodipodi:docname="randybickham.svg"
   inkscape:export-filename="C:\Users\BICKH\Documents\github\randy\images\yardsign3.png"
   inkscape:export-xdpi="126.70156"
   inkscape:export-ydpi="126.70156"
   xmlns:inkscape="http://www.inkscape.org/namespaces/inkscape"
   xmlns:sodipodi="http://sodipodi.sourceforge.net/DTD/sodipodi-0.dtd"
   xmlns="http://www.w3.org/2000/svg"
   xmlns:svg="http://www.w3.org/2000/svg">
  <sodipodi:namedview
     id="namedview7"
     pagecolor="#ffffff"
     bordercolor="#666666"
     borderopacity="1.0"
     inkscape:pageshadow="2"
     inkscape:pageopacity="0.0"
     inkscape:pagecheckerboard="0"
     inkscape:document-units="mm"
     showgrid="false"
     inkscape:zoom="1.6076602"
     inkscape:cx="424.219"
     inkscape:cy="417.37676"
     inkscape:window-width="1920"
     inkscape:window-height="986"
     inkscape:window-x="-11"
     inkscape:window-y="-11"
     inkscape:window-maximized="1"
     inkscape:current-layer="layer6" />
  <defs
     id="defs2">
    <rect
       x="458.43021"
       y="449.09988"
       width="171.05605"
       height="151.77337"
       id="rect129307" />
    <rect
       x="458.43021"
       y="449.09988"
       width="171.05605"
       height="151.77337"
       id="rect152831" />
    <rect
       x="458.43021"
       y="449.09988"
       width="171.05605"
       height="151.77337"
       id="rect152849" />
  </defs>
  <g
     inkscape:groupmode="layer"
     id="layer3"
     inkscape:label="background">
    <rect
       style="fill:#090440;fill-opacity:1;fill-rule:evenodd;stroke:#99106d;stroke-width:0.211967;stroke-opacity:0.393443"
       id="rect31"
       width="120"
       height="90.000023"
       x="33.706963"
       y="58.064308" />
  </g>
  <g
     inkscape:groupmode="layer"
     id="layer6"
     inkscape:label="disclaimer">
    <g
       aria-label="PAID FOR BY BICKHAM FOR COUNCIL"
       id="text91476"
       style="font-size:2.82222px;line-height:1.25;fill:#ffff00;stroke-width:0.264583">
      <path
         d="m 93.966792,138.99782 q 0,0.13642 -0.04823,0.25355 -0.04685,0.11576 -0.132291,0.2012 -0.106109,0.10611 -0.250803,0.15985 -0.144694,0.0524 -0.36518,0.0524 h -0.272851 v 0.76481 h -0.272851 v -2.0519 h 0.556727 q 0.184657,0 0.312814,0.0317 0.128157,0.0303 0.227376,0.0965 0.117133,0.0785 0.180523,0.19568 0.06477,0.11713 0.06477,0.29628 z m -0.283876,0.007 q 0,-0.10611 -0.03721,-0.18466 -0.03721,-0.0786 -0.112999,-0.12816 -0.06615,-0.0427 -0.151584,-0.0606 -0.08406,-0.0193 -0.213596,-0.0193 h -0.270095 v 0.81994 h 0.230132 q 0.165365,0 0.268717,-0.0289 0.103353,-0.0303 0.168121,-0.0951 0.06477,-0.0661 0.09095,-0.13918 0.02756,-0.073 0.02756,-0.16398 z"
         id="path191185" />
      <path
         d="m 95.875373,140.4296 h -0.290766 l -0.201193,-0.57189 h -0.887456 l -0.201193,0.57189 h -0.276986 l 0.746896,-2.0519 h 0.363802 z m -0.576019,-0.80616 -0.359668,-1.00734 -0.361046,1.00734 z"
         id="path191187" />
      <path
         d="m 96.910279,140.4296 h -0.810286 v -0.20947 h 0.268718 v -1.63297 h -0.268718 v -0.20946 h 0.810286 v 0.20946 h -0.268717 v 1.63297 h 0.268717 z"
         id="path191189" />
      <path
         d="m 99.108248,139.40571 q 0,0.27975 -0.122645,0.50712 -0.121267,0.22738 -0.323839,0.35278 -0.14056,0.0868 -0.314192,0.1254 -0.172255,0.0386 -0.454753,0.0386 h -0.518141 v -2.0519 h 0.512629 q 0.300412,0 0.476801,0.0441 0.177767,0.0427 0.300412,0.11851 0.209462,0.13091 0.326595,0.34864 0.117133,0.21773 0.117133,0.51676 z m -0.285253,-0.004 q 0,-0.24116 -0.08406,-0.40652 -0.08406,-0.16537 -0.250802,-0.26045 -0.121268,-0.0689 -0.257693,-0.0951 -0.136426,-0.0276 -0.326595,-0.0276 h -0.256315 v 1.58337 h 0.256315 q 0.197059,0 0.343131,-0.0289 0.14745,-0.0289 0.270095,-0.10749 0.152962,-0.0978 0.228754,-0.25769 0.07717,-0.15985 0.07717,-0.39963 z"
         id="path191191" />
      <path
         d="m 101.85192,138.62023 h -1.03766 v 0.57878 h 0.89159 v 0.24253 h -0.89159 v 0.98806 h -0.27285 v -2.0519 h 1.31051 z"
         id="path191193" />
      <path
         d="m 103.69298,138.61334 q 0.1254,0.13781 0.19155,0.33762 0.0675,0.19982 0.0675,0.45338 0,0.25356 -0.0689,0.45475 -0.0675,0.19981 -0.19017,0.33348 -0.12678,0.13919 -0.30041,0.20947 -0.17226,0.0703 -0.39412,0.0703 -0.21635,0 -0.39412,-0.0717 -0.17639,-0.0717 -0.30041,-0.20809 -0.12403,-0.13642 -0.19155,-0.33486 -0.0661,-0.19844 -0.0661,-0.45337 0,-0.25081 0.0661,-0.44924 0.0662,-0.19982 0.19292,-0.34176 0.12127,-0.13504 0.30042,-0.2067 0.18052,-0.0717 0.39274,-0.0717 0.22048,0 0.39549,0.073 0.17639,0.0717 0.29904,0.20532 z m -0.0248,0.791 q 0,-0.39963 -0.17914,-0.61599 -0.17915,-0.21773 -0.4892,-0.21773 -0.31282,0 -0.49196,0.21773 -0.17777,0.21636 -0.17777,0.61599 0,0.40376 0.1819,0.61873 0.1819,0.2136 0.48783,0.2136 0.30592,0 0.48644,-0.2136 0.1819,-0.21497 0.1819,-0.61873 z"
         id="path191195" />
      <path
         d="m 106.08249,140.4296 h -0.35415 l -0.68626,-0.8158 h -0.38448 v 0.8158 h -0.27285 v -2.0519 h 0.57464 q 0.18604,0 0.31006,0.0248 0.12403,0.0234 0.22324,0.0854 0.11163,0.0703 0.17364,0.17777 0.0634,0.10611 0.0634,0.27009 0,0.22187 -0.11162,0.37207 -0.11163,0.14883 -0.30731,0.22462 z m -0.63803,-1.4745 q 0,-0.0882 -0.0317,-0.15572 -0.0303,-0.0689 -0.10198,-0.11576 -0.0592,-0.04 -0.14056,-0.0551 -0.0813,-0.0165 -0.19154,-0.0165 h -0.32109 v 0.77446 h 0.27561 q 0.12954,0 0.226,-0.022 0.0965,-0.0234 0.16399,-0.0854 0.062,-0.0579 0.091,-0.13229 0.0303,-0.0758 0.0303,-0.19154 z"
         id="path191197" />
      <path
         d="m 108.8868,139.79845 q 0,0.15297 -0.0579,0.2701 -0.0579,0.11713 -0.15572,0.19293 -0.11575,0.0909 -0.25493,0.12953 -0.13781,0.0386 -0.3514,0.0386 h -0.72761 v -2.0519 h 0.60772 q 0.22462,0 0.33624,0.0165 0.11162,0.0165 0.2136,0.0689 0.11299,0.0592 0.16398,0.15296 0.051,0.0923 0.051,0.22186 0,0.14607 -0.0744,0.24943 -0.0744,0.10197 -0.19844,0.16398 v 0.011 q 0.20808,0.0427 0.32797,0.18328 0.11989,0.13918 0.11989,0.35277 z m -0.45889,-0.92466 q 0,-0.0744 -0.0248,-0.1254 -0.0248,-0.051 -0.0799,-0.0827 -0.0648,-0.0372 -0.15709,-0.0455 -0.0923,-0.01 -0.22876,-0.01 h -0.32521 v 0.59255 h 0.35277 q 0.12816,0 0.20395,-0.0124 0.0758,-0.0138 0.14056,-0.0551 0.0648,-0.0413 0.091,-0.10611 0.0276,-0.0661 0.0276,-0.15572 z m 0.17501,0.93569 q 0,-0.12402 -0.0372,-0.19706 -0.0372,-0.073 -0.13505,-0.12402 -0.0662,-0.0345 -0.16123,-0.0441 -0.0937,-0.011 -0.22875,-0.011 h -0.42857 v 0.76343 h 0.36104 q 0.17915,0 0.29352,-0.0179 0.11438,-0.0193 0.18742,-0.0689 0.0772,-0.0537 0.113,-0.12264 0.0358,-0.0689 0.0358,-0.17777 z"
         id="path191199" />
      <path
         d="m 110.72648,138.3777 -0.72209,1.15204 v 0.89986 h -0.27285 v -0.87092 l -0.72485,-1.18098 h 0.30179 l 0.56086,0.91777 0.56637,-0.91777 z"
         id="path191201" />
      <path
         d="m 113.55008,139.79845 q 0,0.15297 -0.0579,0.2701 -0.0579,0.11713 -0.15572,0.19293 -0.11575,0.0909 -0.25494,0.12953 -0.1378,0.0386 -0.35139,0.0386 h -0.72761 v -2.0519 h 0.60772 q 0.22462,0 0.33624,0.0165 0.11162,0.0165 0.21359,0.0689 0.113,0.0592 0.16399,0.15296 0.051,0.0923 0.051,0.22186 0,0.14607 -0.0744,0.24943 -0.0744,0.10197 -0.19843,0.16398 v 0.011 q 0.20808,0.0427 0.32797,0.18328 0.11989,0.13918 0.11989,0.35277 z m -0.45889,-0.92466 q 0,-0.0744 -0.0248,-0.1254 -0.0248,-0.051 -0.0799,-0.0827 -0.0648,-0.0372 -0.1571,-0.0455 -0.0923,-0.01 -0.22875,-0.01 h -0.32522 v 0.59255 h 0.35278 q 0.12816,0 0.20395,-0.0124 0.0758,-0.0138 0.14056,-0.0551 0.0648,-0.0413 0.091,-0.10611 0.0276,-0.0661 0.0276,-0.15572 z m 0.17501,0.93569 q 0,-0.12402 -0.0372,-0.19706 -0.0372,-0.073 -0.13504,-0.12402 -0.0662,-0.0345 -0.16123,-0.0441 -0.0937,-0.011 -0.22876,-0.011 h -0.42857 v 0.76343 h 0.36105 q 0.17914,0 0.29352,-0.0179 0.11438,-0.0193 0.18741,-0.0689 0.0772,-0.0537 0.113,-0.12264 0.0358,-0.0689 0.0358,-0.17777 z"
         id="path191203" />
      <path
         d="m 114.66078,140.4296 h -0.81029 v -0.20947 h 0.26872 v -1.63297 h -0.26872 v -0.20946 h 0.81029 v 0.20946 h -0.26872 v 1.63297 h 0.26872 z"
         id="path191205" />
      <path
         d="m 116.70992,140.28077 q -0.0758,0.0331 -0.13781,0.062 -0.0606,0.0289 -0.15985,0.0606 -0.0841,0.0262 -0.18328,0.0441 -0.0978,0.0193 -0.21635,0.0193 -0.22324,0 -0.40652,-0.062 -0.1819,-0.0634 -0.31695,-0.19706 -0.13229,-0.13091 -0.2067,-0.3321 -0.0744,-0.20258 -0.0744,-0.46992 0,-0.25355 0.0717,-0.45337 0.0717,-0.19982 0.20671,-0.33762 0.13091,-0.13367 0.31557,-0.20395 0.18603,-0.0703 0.41203,-0.0703 0.16536,0 0.32935,0.04 0.16536,0.04 0.36656,0.14056 v 0.32384 h -0.0207 q -0.1695,-0.14193 -0.33624,-0.2067 -0.16675,-0.0648 -0.35692,-0.0648 -0.15571,0 -0.28112,0.051 -0.12402,0.0496 -0.22186,0.15572 -0.0951,0.10335 -0.14883,0.26182 -0.0524,0.1571 -0.0524,0.3638 0,0.21636 0.0579,0.37207 0.0593,0.15572 0.15159,0.25356 0.0965,0.10198 0.22462,0.15159 0.12953,0.0482 0.27285,0.0482 0.19706,0 0.36931,-0.0675 0.17226,-0.0675 0.32247,-0.20257 h 0.0193 z"
         id="path191207" />
      <path
         d="m 118.74528,140.4296 h -0.35416 l -0.81166,-0.91364 -0.20395,0.21773 v 0.69591 h -0.27285 v -2.0519 h 0.27285 v 1.07073 l 0.99632,-1.07073 h 0.33073 l -0.9164,0.96462 z"
         id="path191209" />
      <path
         d="m 120.62079,140.4296 h -0.27285 v -1.00459 h -1.02389 v 1.00459 h -0.27285 v -2.0519 h 0.27285 v 0.80477 h 1.02389 v -0.80477 h 0.27285 z"
         id="path191211" />
      <path
         d="m 122.78982,140.4296 h -0.29077 l -0.20119,-0.57189 h -0.88746 l -0.20119,0.57189 h -0.27699 l 0.7469,-2.0519 h 0.3638 z m -0.57602,-0.80616 -0.35967,-1.00734 -0.36105,1.00734 z"
         id="path191213" />
      <path
         d="m 124.92853,140.4296 h -0.27285 v -1.76803 l -0.57051,1.20303 h -0.16261 l -0.56637,-1.20303 v 1.76803 h -0.25494 v -2.0519 h 0.37207 l 0.54708,1.14239 0.52917,-1.14239 h 0.37896 z"
         id="path191215" />
      <path
         d="m 127.78244,138.62023 h -1.03766 v 0.57878 h 0.89159 v 0.24253 h -0.89159 v 0.98806 h -0.27285 v -2.0519 h 1.31051 z"
         id="path191217" />
      <path
         d="m 129.6235,138.61334 q 0.12541,0.13781 0.19155,0.33762 0.0675,0.19982 0.0675,0.45338 0,0.25356 -0.0689,0.45475 -0.0675,0.19981 -0.19017,0.33348 -0.12678,0.13919 -0.30041,0.20947 -0.17225,0.0703 -0.39412,0.0703 -0.21635,0 -0.39412,-0.0717 -0.17638,-0.0717 -0.30041,-0.20809 -0.12402,-0.13642 -0.19154,-0.33486 -0.0662,-0.19844 -0.0662,-0.45337 0,-0.25081 0.0662,-0.44924 0.0661,-0.19982 0.19292,-0.34176 0.12127,-0.13504 0.30041,-0.2067 0.18053,-0.0717 0.39274,-0.0717 0.22049,0 0.3955,0.073 0.17639,0.0717 0.29903,0.20532 z m -0.0248,0.791 q 0,-0.39963 -0.17915,-0.61599 -0.17914,-0.21773 -0.4892,-0.21773 -0.31281,0 -0.49196,0.21773 -0.17776,0.21636 -0.17776,0.61599 0,0.40376 0.1819,0.61873 0.1819,0.2136 0.48782,0.2136 0.30593,0 0.48645,-0.2136 0.1819,-0.21497 0.1819,-0.61873 z"
         id="path191219" />
      <path
         d="m 132.01302,140.4296 h -0.35416 l -0.68626,-0.8158 h -0.38447 v 0.8158 h -0.27285 v -2.0519 h 0.57464 q 0.18603,0 0.31006,0.0248 0.12402,0.0234 0.22324,0.0854 0.11162,0.0703 0.17363,0.17777 0.0634,0.10611 0.0634,0.27009 0,0.22187 -0.11162,0.37207 -0.11162,0.14883 -0.3073,0.22462 z m -0.63803,-1.4745 q 0,-0.0882 -0.0317,-0.15572 -0.0303,-0.0689 -0.10197,-0.11576 -0.0593,-0.04 -0.14056,-0.0551 -0.0813,-0.0165 -0.19155,-0.0165 h -0.32108 v 0.77446 h 0.27561 q 0.12953,0 0.22599,-0.022 0.0965,-0.0234 0.16399,-0.0854 0.062,-0.0579 0.091,-0.13229 0.0303,-0.0758 0.0303,-0.19154 z"
         id="path191221" />
      <path
         d="m 134.85453,140.28077 q -0.0758,0.0331 -0.1378,0.062 -0.0606,0.0289 -0.15985,0.0606 -0.0841,0.0262 -0.18328,0.0441 -0.0978,0.0193 -0.21635,0.0193 -0.22325,0 -0.40653,-0.062 -0.1819,-0.0634 -0.31694,-0.19706 -0.1323,-0.13091 -0.20671,-0.3321 -0.0744,-0.20258 -0.0744,-0.46992 0,-0.25355 0.0717,-0.45337 0.0717,-0.19982 0.20671,-0.33762 0.13091,-0.13367 0.31557,-0.20395 0.18604,-0.0703 0.41203,-0.0703 0.16537,0 0.32935,0.04 0.16537,0.04 0.36656,0.14056 v 0.32384 h -0.0207 q -0.1695,-0.14193 -0.33624,-0.2067 -0.16674,-0.0648 -0.35691,-0.0648 -0.15572,0 -0.28112,0.051 -0.12402,0.0496 -0.22186,0.15572 -0.0951,0.10335 -0.14883,0.26182 -0.0524,0.1571 -0.0524,0.3638 0,0.21636 0.0579,0.37207 0.0593,0.15572 0.15158,0.25356 0.0965,0.10198 0.22462,0.15159 0.12954,0.0482 0.27286,0.0482 0.19705,0 0.36931,-0.0675 0.17225,-0.0675 0.32246,-0.20257 h 0.0193 z"
         id="path191223" />
      <path
         d="m 136.77,138.61334 q 0.12541,0.13781 0.19155,0.33762 0.0675,0.19982 0.0675,0.45338 0,0.25356 -0.0689,0.45475 -0.0675,0.19981 -0.19017,0.33348 -0.12678,0.13919 -0.30041,0.20947 -0.17225,0.0703 -0.39412,0.0703 -0.21635,0 -0.39412,-0.0717 -0.17638,-0.0717 -0.30041,-0.20809 -0.12402,-0.13642 -0.19154,-0.33486 -0.0661,-0.19844 -0.0661,-0.45337 0,-0.25081 0.0661,-0.44924 0.0661,-0.19982 0.19292,-0.34176 0.12127,-0.13504 0.30041,-0.2067 0.18053,-0.0717 0.39274,-0.0717 0.22049,0 0.3955,0.073 0.17639,0.0717 0.29903,0.20532 z m -0.0248,0.791 q 0,-0.39963 -0.17915,-0.61599 -0.17914,-0.21773 -0.4892,-0.21773 -0.31281,0 -0.49196,0.21773 -0.17776,0.21636 -0.17776,0.61599 0,0.40376 0.1819,0.61873 0.1819,0.2136 0.48782,0.2136 0.30593,0 0.48645,-0.2136 0.1819,-0.21497 0.1819,-0.61873 z"
         id="path191225" />
      <path
         d="m 139.00656,139.60553 q 0,0.22324 -0.0496,0.38998 -0.0482,0.16537 -0.15985,0.27561 -0.10611,0.10473 -0.24805,0.15296 -0.14194,0.0482 -0.33073,0.0482 -0.19292,0 -0.33624,-0.051 -0.14331,-0.051 -0.24116,-0.15021 -0.11162,-0.113 -0.16123,-0.27285 -0.0482,-0.15985 -0.0482,-0.39274 v -1.22783 h 0.27285 v 1.24161 q 0,0.16674 0.0221,0.26321 0.0234,0.0965 0.0772,0.17501 0.0606,0.0896 0.16399,0.13504 0.10473,0.0455 0.2508,0.0455 0.14745,0 0.25081,-0.0441 0.10335,-0.0455 0.16536,-0.13642 0.0537,-0.0786 0.0758,-0.17915 0.0234,-0.10197 0.0234,-0.25218 v -1.2485 h 0.27285 z"
         id="path191227" />
      <path
         d="m 141.09291,140.4296 h -0.33762 l -0.9729,-1.83555 v 1.83555 h -0.25493 v -2.0519 h 0.42305 l 0.88746,1.67569 v -1.67569 h 0.25494 z"
         id="path191229" />
      <path
         d="m 143.22335,140.28077 q -0.0758,0.0331 -0.1378,0.062 -0.0606,0.0289 -0.15985,0.0606 -0.0841,0.0262 -0.18328,0.0441 -0.0978,0.0193 -0.21635,0.0193 -0.22325,0 -0.40652,-0.062 -0.18191,-0.0634 -0.31695,-0.19706 -0.13229,-0.13091 -0.20671,-0.3321 -0.0744,-0.20258 -0.0744,-0.46992 0,-0.25355 0.0717,-0.45337 0.0717,-0.19982 0.20671,-0.33762 0.13091,-0.13367 0.31557,-0.20395 0.18604,-0.0703 0.41203,-0.0703 0.16537,0 0.32936,0.04 0.16536,0.04 0.36655,0.14056 v 0.32384 h -0.0207 q -0.1695,-0.14193 -0.33624,-0.2067 -0.16674,-0.0648 -0.35691,-0.0648 -0.15572,0 -0.28112,0.051 -0.12402,0.0496 -0.22186,0.15572 -0.0951,0.10335 -0.14883,0.26182 -0.0524,0.1571 -0.0524,0.3638 0,0.21636 0.0579,0.37207 0.0593,0.15572 0.15158,0.25356 0.0965,0.10198 0.22462,0.15159 0.12954,0.0482 0.27286,0.0482 0.19706,0 0.36931,-0.0675 0.17225,-0.0675 0.32246,-0.20257 h 0.0193 z"
         id="path191231" />
      <path
         d="m 144.33267,140.4296 h -0.81028 v -0.20947 h 0.26871 v -1.63297 h -0.26871 v -0.20946 h 0.81028 v 0.20946 h -0.26872 v 1.63297 h 0.26872 z"
         id="path191233" />
      <path
         d="m 146.09518,140.4296 h -1.29811 v -2.0519 h 0.27285 v 1.80936 h 1.02526 z"
         id="path191235" />
    </g>
  </g>
  <g
     inkscape:groupmode="layer"
     id="layer5"
     inkscape:label="Box"
     style="display:inline">
    <rect
       style="fill:none;fill-opacity:1;stroke:#000000;stroke-width:0.178028;stroke-opacity:0.392157"
       id="rect63764"
       width="114.58264"
       height="16.007008"
       x="36.415642"
       y="124.72699" />
    <rect
       style="display:inline;fill:#ffff02;fill-opacity:1;stroke:#000000;stroke-width:0.116357;stroke-opacity:0.392157"
       id="rect63764-2"
       width="78.35495"
       height="9.9993219"
       x="83.978691"
       y="-120.06604"
       transform="matrix(1,0,0.15106526,-0.98852379,0,0)" />
  </g>
  <g
     inkscape:groupmode="layer"
     id="layer2"
     inkscape:label="Lines"
     style="display:inline">
    <g
       inkscape:label="bickham"
       inkscape:groupmode="layer"
       id="layer1"
       style="display:inline">
      <g
         aria-label="
BICKHAM 
"
         transform="scale(1.01583,0.98441672)"
         id="text13377"
         style="font-size:10.7299px;line-height:0;fill:#ffffff;stroke-width:0.26825">
        <path
           d="m 43.074791,99.517946 h 5.574707 q 1.129358,0 1.742096,-0.54065 0.624751,-0.552665 0.624751,-1.53785 v -0.03604 q 0,-0.660795 -0.276332,-1.129359 Q 50.46368,95.80548 49.92303,95.565191 49.394394,95.312888 48.649498,95.312888 h -5.574707 v -3.171816 h 5.574707 q 1.021228,0 1.573893,-0.516622 0.564679,-0.516621 0.564679,-1.453748 v 0 q 0,-0.841012 -0.564679,-1.309576 -0.552665,-0.468563 -1.573893,-0.468563 h -5.574707 v -3.171816 h 5.682837 q 1.694038,0 2.895483,0.564679 1.201445,0.552665 1.826197,1.621951 0.624752,1.057272 0.624752,2.547064 v 0 q 0,1.021229 -0.408492,1.814183 -0.396477,0.780939 -1.165402,1.285546 -0.768925,0.504607 -1.850226,0.684824 1.153388,0.156188 1.970371,0.708853 0.828997,0.54065 1.249503,1.417705 0.43252,0.877056 0.43252,2.030443 v 0.03604 q 0,1.501807 -0.636766,2.571092 -0.624751,1.06929 -1.838211,1.63397 -1.201446,0.55266 -2.895483,0.55266 H 43.074791 Z M 41.633057,85.220747 h 3.29196 v 17.469013 h -3.29196 z"
           style="font-weight:bold;font-size:15.5404px;line-height:1.15;font-family:Bahnschrift;-inkscape-font-specification:'Bahnschrift Bold'"
           id="path191043" />
        <path
           d="M 60.68798,102.68976 H 57.275875 V 85.220747 h 3.412105 z"
           style="font-size:24.6056px"
           id="path191045" />
        <path
           d="m 70.251486,102.86998 q -1.9944,0 -3.412105,-0.75691 -1.417706,-0.76893 -2.162602,-2.222676 -0.744896,-1.465763 -0.744896,-3.532249 v -4.793767 q 0,-2.066486 0.744896,-3.520235 0.744896,-1.465763 2.162602,-2.234688 1.417705,-0.768925 3.412105,-0.768925 1.64598,0 2.943541,0.708853 1.297561,0.708853 2.138572,2.066486 0.853027,1.345619 1.177417,3.255917 v 0 h -3.412105 v 0 q -0.192231,-0.865041 -0.600723,-1.477778 -0.396477,-0.612737 -0.97317,-0.937127 -0.56468,-0.324391 -1.273532,-0.324391 -0.925113,0 -1.573894,0.384463 -0.64878,0.372448 -0.997199,1.105329 -0.336405,0.720868 -0.336405,1.742096 v 4.793767 q 0,1.021229 0.336405,1.742096 0.348419,0.720867 0.997199,1.10533 0.648781,0.372448 1.573894,0.372448 0.720867,0 1.297561,-0.312376 0.576693,-0.32439 0.97317,-0.937128 0.396477,-0.612737 0.576694,-1.489792 v 0 h 3.412105 v 0 q -0.336405,1.910298 -1.189431,3.267927 -0.841012,1.34562 -2.138573,2.05448 -1.285546,0.70885 -2.931526,0.70885 z"
           style="font-size:24.6056px"
           id="path191047" />
        <path
           d="m 81.256723,95.865552 7.004426,-10.644805 h 4.144987 L 81.677229,100.1427 Z M 79.274338,85.220747 h 3.29196 v 17.469013 h -3.29196 z m 4.889883,8.626377 2.835411,-1.790153 6.139385,10.632789 H 89.23432 Z"
           style="font-size:24.6056px"
           id="path191049" />
        <path
           d="m 104.86513,85.220747 h 3.29196 v 17.469013 h -3.29196 z m -9.563509,0 h 3.29196 v 17.469013 h -3.29196 z m 1.525835,7.220686 H 107.0037 v 3.171816 H 96.827456 Z"
           style="font-size:24.6056px"
           id="path191051" />
        <path
           d="m 116.75943,85.220747 h 2.09052 l 6.68004,17.469013 h -3.54427 l -4.18103,-11.93035 -4.18103,11.93035 h -3.54426 z m -3.47217,11.497832 h 9.19105 v 3.171815 h -9.19105 z"
           style="font-size:24.6056px"
           id="path191053" />
        <path
           d="m 138.68581,85.220747 h 4.33721 v 17.469013 h -2.99159 V 89.125444 l 0.12014,0.768925 -3.34002,10.849051 h -2.9075 l -3.34001,-10.608762 0.12014,-1.009214 v 13.564316 h -2.9916 V 85.220747 h 4.33722 l 3.328,11.774164 z"
           style="font-size:24.6056px"
           id="path191055" />
      </g>
      <text
         xml:space="preserve"
         transform="scale(0.26458333)"
         id="text129305"
         style="font-style:normal;font-weight:normal;font-size:40px;line-height:1.25;font-family:sans-serif;white-space:pre;shape-inside:url(#rect129307);fill:#000000;fill-opacity:1;stroke:none" />
    </g>
    <g
       inkscape:label="council"
       inkscape:groupmode="layer"
       id="g152829"
       style="display:inline">
      <g
         aria-label="
FOR CITY COUNCIL
"
         transform="scale(0.98197419,1.0183567)"
         id="text152823"
         style="font-size:11.6917px;line-height:0;fill:#090440;stroke-width:0.292294">
        <path
           d="m 78.85483,113.33774 q 0,0.20172 0.01142,0.30828 0.01142,0.10276 0.04187,0.16746 0.03045,0.0647 0.07231,0.10657 0.04567,0.0381 0.121789,0.0723 0.07993,0.0305 0.213132,0.0495 v 0.25119 h -2.047584 v -0.25119 q 0.140819,-0.0343 0.220743,-0.0799 0.08373,-0.0457 0.121789,-0.12179 0.04187,-0.0799 0.05328,-0.20171 0.01142,-0.12179 0.01142,-0.30447 v -3.2769 q 0,-0.17888 -0.01142,-0.30067 -0.0076,-0.12179 -0.04948,-0.1979 -0.03806,-0.0761 -0.121789,-0.12179 -0.07992,-0.0495 -0.224549,-0.0875 v -0.25119 h 3.680323 v 1.21028 h -0.521411 q -0.125596,-0.36156 -0.213132,-0.48716 -0.08754,-0.1294 -0.209325,-0.20171 -0.12179,-0.0761 -0.414845,-0.0761 H 78.85483 v 1.93721 h 0.487157 q 0.178878,0 0.274026,-0.0533 0.09895,-0.0571 0.159849,-0.18649 0.0647,-0.1294 0.106565,-0.36537 h 0.430069 v 1.65938 h -0.430069 q -0.04567,-0.23977 -0.110371,-0.36917 -0.0647,-0.13321 -0.159849,-0.18649 -0.09515,-0.0533 -0.27022,-0.0533 H 78.85483 Z"
           style="font-weight:bold;font-size:16.9333px;line-height:1.15;font-family:Bahnschrift;-inkscape-font-specification:'Bahnschrift Bold'"
           id="path191077" />
        <path
           d="m 83.692151,114.35392 q -1.118939,0 -1.682215,-0.65462 -0.55947,-0.65461 -0.55947,-1.96004 0,-0.85633 0.27022,-1.46148 0.274026,-0.60894 0.803049,-0.92483 0.529022,-0.31589 1.259758,-0.31589 1.13797,0 1.708858,0.65461 0.570887,0.65082 0.570887,1.93722 0,0.71931 -0.171266,1.23692 -0.16746,0.5138 -0.479546,0.84491 -0.312085,0.33112 -0.749765,0.48716 -0.433875,0.15604 -0.97051,0.15604 z m -1.031403,-2.71742 q 0,1.14938 0.274026,1.71266 0.277832,0.55947 0.844914,0.55947 0.293055,0 0.498575,-0.15604 0.205519,-0.15985 0.331115,-0.44149 0.129401,-0.28544 0.182684,-0.67365 0.05709,-0.3882 0.05709,-0.85252 0,-0.75738 -0.12179,-1.26737 -0.117983,-0.5138 -0.361562,-0.7726 -0.239773,-0.26261 -0.616559,-0.26261 -0.551858,0 -0.822078,0.52902 -0.266414,0.52522 -0.266414,1.62513 z"
           style="font-weight:bold;font-size:7.79452px;line-height:1.15;font-family:Cambria;-inkscape-font-specification:'Cambria Bold';text-align:center;text-anchor:middle"
           id="path191079" />
        <path
           d="m 88.830141,114.29303 h -1.998107 v -0.25119 q 0.140819,-0.0381 0.220743,-0.0799 0.08373,-0.0457 0.121789,-0.12179 0.04187,-0.0799 0.05328,-0.1979 0.01142,-0.12179 0.01142,-0.30448 v -3.2807 q 0,-0.17888 -0.01142,-0.30067 -0.0076,-0.12179 -0.04948,-0.1979 -0.03806,-0.0761 -0.121789,-0.12179 -0.07992,-0.0495 -0.224549,-0.0875 v -0.25119 h 2.21885 q 0.449098,0 0.761184,0.0647 0.315891,0.0609 0.551858,0.1903 0.197907,0.10656 0.33492,0.27022 0.137013,0.15985 0.209326,0.37678 0.07612,0.21313 0.07612,0.49858 0,0.37298 -0.133207,0.63939 -0.129401,0.26642 -0.35395,0.44529 -0.220743,0.17508 -0.593723,0.33112 v 0.0381 q 0.281637,0.12179 0.464322,0.32731 0.18649,0.20171 0.33492,0.5138 l 0.239773,0.5176 q 0.159849,0.34634 0.315891,0.52141 0.159849,0.17127 0.376786,0.20933 v 0.25119 h -1.465278 q -0.220743,-0.30448 -0.498575,-0.90581 l -0.296862,-0.65081 q -0.133207,-0.28925 -0.228355,-0.41104 -0.09515,-0.12179 -0.197908,-0.16746 -0.09895,-0.0457 -0.308279,-0.0457 h -0.220743 v 1.2255 q 0,0.28545 0.02664,0.39962 0.02664,0.11418 0.10276,0.18269 0.07612,0.0685 0.281638,0.12179 z m -0.411039,-4.74218 v 2.11609 h 0.376785 q 0.304474,0 0.502382,-0.0799 0.197907,-0.0837 0.312085,-0.22835 0.117983,-0.14844 0.159848,-0.34634 0.04567,-0.19791 0.04567,-0.43388 0,-0.5176 -0.243578,-0.77641 -0.243579,-0.2588 -0.723125,-0.2588 -0.327309,0 -0.430068,0.008 z"
           style="font-weight:bold;font-size:7.79452px;line-height:1.15;font-family:Cambria;-inkscape-font-specification:'Cambria Bold';text-align:center;text-anchor:middle"
           id="path191081" />
        <path
           d="m 97.484798,109.21593 v 1.10372 h -0.517605 q -0.09134,-0.43007 -0.28925,-0.63178 -0.197908,-0.20552 -0.517605,-0.20552 -0.601335,0 -0.909614,0.5785 -0.308279,0.57469 -0.308279,1.70885 0,1.05424 0.281638,1.59849 0.281637,0.54044 0.825884,0.54044 0.277832,0 0.452904,-0.0913 0.175072,-0.0952 0.277832,-0.28164 0.106566,-0.18649 0.182684,-0.52522 h 0.521411 v 1.1532 q -0.418651,0.099 -0.76499,0.14462 -0.346338,0.0457 -0.719318,0.0457 -0.791631,0 -1.294012,-0.28544 -0.498576,-0.28544 -0.738348,-0.86014 -0.235967,-0.5785 -0.235967,-1.46147 0,-0.82589 0.277832,-1.43483 0.281638,-0.61275 0.825884,-0.94387 0.544246,-0.33111 1.301624,-0.33111 0.384398,0 0.696483,0.0419 0.312085,0.0419 0.650812,0.13701 z"
           style="font-weight:bold;font-size:7.79452px;line-height:1.15;font-family:Cambria;-inkscape-font-specification:'Cambria Bold';text-align:center;text-anchor:middle"
           id="path191083" />
        <path
           d="m 99.760736,113.33774 q 0,0.13321 0.0076,0.24739 0.0076,0.11417 0.03045,0.18649 0.02284,0.0723 0.0647,0.12179 0.04567,0.0495 0.121789,0.0875 0.07612,0.0343 0.186495,0.0609 v 0.25119 h -1.998111 v -0.25119 q 0.140819,-0.0381 0.220743,-0.0799 0.08373,-0.0457 0.121789,-0.12179 0.04187,-0.0799 0.05328,-0.1979 0.01142,-0.12179 0.01142,-0.30448 v -3.2845 q 0,-0.18269 -0.01142,-0.30067 -0.0076,-0.11799 -0.04948,-0.1941 -0.03806,-0.0799 -0.121789,-0.1256 -0.07993,-0.0457 -0.224549,-0.0837 v -0.25119 h 1.998111 v 0.25119 q -0.15605,0.0419 -0.232166,0.0913 -0.07231,0.0457 -0.110371,0.11418 -0.03806,0.0685 -0.05328,0.17888 -0.01522,0.11037 -0.01522,0.3235 z"
           style="font-weight:bold;font-size:7.79452px;line-height:1.15;font-family:Cambria;-inkscape-font-specification:'Cambria Bold';text-align:center;text-anchor:middle"
           id="path191085" />
        <path
           d="m 101.97578,114.29303 v -0.25119 q 0.15985,-0.0266 0.25119,-0.0685 0.0952,-0.0457 0.14082,-0.12559 0.0457,-0.0799 0.0571,-0.20172 0.0114,-0.12559 0.0114,-0.30828 v -3.7945 h -0.30828 q -0.22836,0 -0.35015,0.0533 -0.12179,0.0533 -0.21313,0.16746 -0.0875,0.11417 -0.15223,0.30828 -0.0647,0.19029 -0.10657,0.36156 h -0.52141 v -1.33588 h 4.47956 v 1.33588 h -0.52141 q -0.0723,-0.25881 -0.11417,-0.38059 -0.0419,-0.12179 -0.0952,-0.20552 -0.0495,-0.0875 -0.10657,-0.14463 -0.0571,-0.0571 -0.12179,-0.0913 -0.0647,-0.0343 -0.16365,-0.0495 -0.0952,-0.019 -0.25119,-0.019 h -0.27403 v 3.7945 q 0,0.20172 0.0114,0.30828 0.0114,0.10276 0.0419,0.16746 0.0304,0.0647 0.0723,0.10657 0.0457,0.0381 0.12179,0.0723 0.0799,0.0305 0.21313,0.0495 v 0.25119 z"
           style="font-weight:bold;font-size:7.79452px;line-height:1.15;font-family:Cambria;-inkscape-font-specification:'Cambria Bold';text-align:center;text-anchor:middle"
           id="path191087" />
        <path
           d="m 108.41539,112.29492 v 1.04282 q 0,0.20172 0.0114,0.30828 0.0114,0.10276 0.0419,0.16746 0.0304,0.0647 0.0723,0.10657 0.0457,0.0381 0.12179,0.0723 0.0799,0.0305 0.21313,0.0495 v 0.25119 h -2.10087 v -0.25119 q 0.15605,-0.0266 0.24739,-0.0685 0.0952,-0.0419 0.14082,-0.12179 0.0457,-0.0799 0.0571,-0.20171 0.0152,-0.1256 0.0152,-0.31209 v -1.04282 l -1.0314,-2.17698 q -0.13321,-0.27784 -0.20933,-0.41104 -0.0875,-0.15605 -0.15224,-0.22455 -0.0609,-0.0685 -0.11417,-0.0951 -0.0533,-0.0266 -0.14844,-0.0381 v -0.25119 h 2.02856 v 0.25119 q -0.29306,0.0381 -0.29306,0.28925 0,0.099 0.0457,0.23597 0.0495,0.13701 0.15605,0.36537 l 0.6432,1.43102 0.69648,-1.39677 q 0.10276,-0.20933 0.14082,-0.34634 0.0419,-0.14082 0.0419,-0.27783 0,-0.13701 -0.0799,-0.21313 -0.0761,-0.0799 -0.21694,-0.0875 v -0.25119 h 1.52618 v 0.25119 q -0.10276,0.0228 -0.17127,0.0647 -0.0647,0.0381 -0.14463,0.1256 -0.0799,0.0837 -0.19029,0.25499 -0.11037,0.17127 -0.255,0.4453 z"
           style="font-weight:bold;font-size:7.79452px;line-height:1.15;font-family:Cambria;-inkscape-font-specification:'Cambria Bold';text-align:center;text-anchor:middle"
           id="path191089" />
        <path
           d="m 116.08812,109.21593 v 1.10372 h -0.5176 q -0.0913,-0.43007 -0.28925,-0.63178 -0.19791,-0.20552 -0.51761,-0.20552 -0.60133,0 -0.90961,0.5785 -0.30828,0.57469 -0.30828,1.70885 0,1.05424 0.28164,1.59849 0.28164,0.54044 0.82588,0.54044 0.27783,0 0.45291,-0.0913 0.17507,-0.0952 0.27783,-0.28164 0.10656,-0.18649 0.18268,-0.52522 h 0.52141 v 1.1532 q -0.41865,0.099 -0.76499,0.14462 -0.34634,0.0457 -0.71932,0.0457 -0.79163,0 -1.29401,-0.28544 -0.49857,-0.28544 -0.73835,-0.86014 -0.23596,-0.5785 -0.23596,-1.46147 0,-0.82589 0.27783,-1.43483 0.28164,-0.61275 0.82588,-0.94387 0.54425,-0.33111 1.30163,-0.33111 0.3844,0 0.69648,0.0419 0.31209,0.0419 0.65081,0.13701 z"
           style="font-weight:bold;font-size:7.79452px;line-height:1.15;font-family:Cambria;-inkscape-font-specification:'Cambria Bold';text-align:center;text-anchor:middle"
           id="path191091" />
        <path
           d="m 118.94256,114.35392 q -1.11894,0 -1.68221,-0.65462 -0.55947,-0.65461 -0.55947,-1.96004 0,-0.85633 0.27022,-1.46148 0.27403,-0.60894 0.80305,-0.92483 0.52902,-0.31589 1.25976,-0.31589 1.13797,0 1.70885,0.65461 0.57089,0.65082 0.57089,1.93722 0,0.71931 -0.17127,1.23692 -0.16746,0.5138 -0.47954,0.84491 -0.31209,0.33112 -0.74977,0.48716 -0.43387,0.15604 -0.97051,0.15604 z m -1.0314,-2.71742 q 0,1.14938 0.27403,1.71266 0.27783,0.55947 0.84491,0.55947 0.29306,0 0.49858,-0.15604 0.20552,-0.15985 0.33111,-0.44149 0.1294,-0.28544 0.18268,-0.67365 0.0571,-0.3882 0.0571,-0.85252 0,-0.75738 -0.12179,-1.26737 -0.11798,-0.5138 -0.36156,-0.7726 -0.23977,-0.26261 -0.61656,-0.26261 -0.55185,0 -0.82208,0.52902 -0.26641,0.52522 -0.26641,1.62513 z"
           style="font-weight:bold;font-size:7.79452px;line-height:1.15;font-family:Cambria;-inkscape-font-specification:'Cambria Bold';text-align:center;text-anchor:middle"
           id="path191093" />
        <path
           d="m 125.43546,110.05324 q 0,-0.28545 -0.0266,-0.39582 -0.0228,-0.11418 -0.0952,-0.18268 -0.0723,-0.0685 -0.28164,-0.1256 v -0.25119 h 1.6746 v 0.25119 q -0.13701,0.0381 -0.21693,0.0837 -0.0799,0.0419 -0.12179,0.12179 -0.0419,0.0761 -0.0533,0.19791 -0.0114,0.11798 -0.0114,0.30067 v 2.37869 q 0,0.47194 -0.0761,0.79164 -0.0761,0.31589 -0.23597,0.53282 -0.15985,0.21694 -0.39962,0.35015 -0.23597,0.13321 -0.53283,0.19029 -0.29686,0.0571 -0.66603,0.0571 -0.54044,0 -0.91342,-0.11037 -0.37298,-0.11418 -0.60895,-0.33873 -0.23216,-0.22835 -0.34634,-0.55185 -0.11037,-0.32351 -0.11037,-0.8335 v -2.46243 q 0,-0.17888 -0.0114,-0.30067 -0.008,-0.12179 -0.0495,-0.1979 -0.0381,-0.0761 -0.12179,-0.12179 -0.0799,-0.0495 -0.22454,-0.0875 v -0.25119 h 1.9981 v 0.25119 q -0.15604,0.0419 -0.23216,0.0913 -0.0723,0.0457 -0.11037,0.11418 -0.0381,0.0685 -0.0533,0.17888 -0.0152,0.11037 -0.0152,0.3235 v 2.51191 q 0,0.30066 0.0381,0.54805 0.0381,0.24738 0.13702,0.42626 0.10276,0.17507 0.28163,0.27022 0.17888,0.0952 0.46052,0.0952 0.3882,0 0.5785,-0.15604 0.19029,-0.15604 0.26641,-0.43388 0.0799,-0.28163 0.0799,-0.8373 z"
           style="font-weight:bold;font-size:7.79452px;line-height:1.15;font-family:Cambria;-inkscape-font-specification:'Cambria Bold';text-align:center;text-anchor:middle"
           id="path191095" />
        <path
           d="m 131.96641,109.09795 v 0.25119 q -0.15223,0.0495 -0.21693,0.0837 -0.0609,0.0343 -0.10657,0.0913 -0.0419,0.0571 -0.0647,0.17508 -0.0228,0.11417 -0.0228,0.35395 v 4.23979 h -0.96671 l -1.71266,-2.96101 q -0.34634,-0.60133 -0.50999,-0.94386 h -0.0343 q 0.0381,0.81827 0.0381,1.72788 v 1.22551 q 0,0.28544 0.0266,0.39962 0.0305,0.11418 0.10276,0.18268 0.0761,0.0647 0.28164,0.11799 v 0.25119 h -1.43864 v -0.25119 q 0.14082,-0.0381 0.22075,-0.0837 0.0837,-0.0457 0.12179,-0.12179 0.0419,-0.0799 0.0533,-0.19791 0.0114,-0.11798 0.0114,-0.29686 v -3.29212 q 0,-0.28544 -0.0266,-0.39201 -0.0228,-0.11037 -0.10276,-0.18268 -0.0761,-0.0723 -0.27784,-0.1256 v -0.25119 h 1.5414 l 1.3473,2.34064 q 0.12559,0.22074 0.32731,0.59753 0.20171,0.37678 0.35775,0.71171 h 0.0609 q -0.0419,-0.90962 -0.0419,-1.98669 v -0.7079 q 0,-0.24739 -0.019,-0.35776 -0.019,-0.11037 -0.0609,-0.16746 -0.0381,-0.0571 -0.10657,-0.0952 -0.0647,-0.0381 -0.22074,-0.0837 v -0.25119 z"
           style="font-weight:bold;font-size:7.79452px;line-height:1.15;font-family:Cambria;-inkscape-font-specification:'Cambria Bold';text-align:center;text-anchor:middle"
           id="path191097" />
        <path
           d="m 136.42695,109.21593 v 1.10372 h -0.5176 q -0.0913,-0.43007 -0.28925,-0.63178 -0.19791,-0.20552 -0.51761,-0.20552 -0.60133,0 -0.90961,0.5785 -0.30828,0.57469 -0.30828,1.70885 0,1.05424 0.28164,1.59849 0.28163,0.54044 0.82588,0.54044 0.27783,0 0.4529,-0.0913 0.17508,-0.0952 0.27784,-0.28164 0.10656,-0.18649 0.18268,-0.52522 h 0.52141 v 1.1532 q -0.41865,0.099 -0.76499,0.14462 -0.34634,0.0457 -0.71932,0.0457 -0.79163,0 -1.29401,-0.28544 -0.49857,-0.28544 -0.73835,-0.86014 -0.23596,-0.5785 -0.23596,-1.46147 0,-0.82589 0.27783,-1.43483 0.28164,-0.61275 0.82588,-0.94387 0.54425,-0.33111 1.30163,-0.33111 0.38439,0 0.69648,0.0419 0.31209,0.0419 0.65081,0.13701 z"
           style="font-weight:bold;font-size:7.79452px;line-height:1.15;font-family:Cambria;-inkscape-font-specification:'Cambria Bold';text-align:center;text-anchor:middle"
           id="path191099" />
        <path
           d="m 138.70289,113.33774 q 0,0.13321 0.008,0.24739 0.008,0.11417 0.0305,0.18649 0.0228,0.0723 0.0647,0.12179 0.0457,0.0495 0.12179,0.0875 0.0761,0.0343 0.18649,0.0609 v 0.25119 h -1.99811 v -0.25119 q 0.14082,-0.0381 0.22075,-0.0799 0.0837,-0.0457 0.12179,-0.12179 0.0419,-0.0799 0.0533,-0.1979 0.0114,-0.12179 0.0114,-0.30448 v -3.2845 q 0,-0.18269 -0.0114,-0.30067 -0.008,-0.11799 -0.0495,-0.1941 -0.0381,-0.0799 -0.12179,-0.1256 -0.0799,-0.0457 -0.22455,-0.0837 v -0.25119 h 1.99811 v 0.25119 q -0.15604,0.0419 -0.23216,0.0913 -0.0723,0.0457 -0.11037,0.11418 -0.0381,0.0685 -0.0533,0.17888 -0.0152,0.11037 -0.0152,0.3235 z"
           style="font-weight:bold;font-size:7.79452px;line-height:1.15;font-family:Cambria;-inkscape-font-specification:'Cambria Bold';text-align:center;text-anchor:middle"
           id="path191101" />
        <path
           d="m 141.83897,109.09795 v 0.25119 q -0.13702,0.0381 -0.21694,0.0837 -0.0799,0.0419 -0.1256,0.11798 -0.0419,0.0761 -0.0571,0.19791 -0.0114,0.11799 -0.0114,0.30067 v 3.79069 h 0.73834 q 0.22075,0 0.35396,-0.0685 0.1332,-0.0685 0.22835,-0.20933 0.099,-0.14462 0.16746,-0.37298 0.0723,-0.23216 0.11418,-0.43387 h 0.52141 l -0.0837,1.53759 h -3.62704 v -0.25119 q 0.14082,-0.0381 0.22074,-0.0837 0.0837,-0.0457 0.12179,-0.12179 0.0419,-0.0799 0.0533,-0.19791 0.0114,-0.12179 0.0114,-0.30447 v -3.2769 q 0,-0.17888 -0.0114,-0.30067 -0.008,-0.12179 -0.0495,-0.1979 -0.0381,-0.0761 -0.12179,-0.12179 -0.0799,-0.0495 -0.22455,-0.0875 v -0.25119 z"
           style="font-weight:bold;font-size:7.79452px;line-height:1.15;font-family:Cambria;-inkscape-font-specification:'Cambria Bold';text-align:center;text-anchor:middle"
           id="path191103" />
      </g>
      <text
         xml:space="preserve"
         transform="scale(0.26458333)"
         id="text152827"
         style="font-style:normal;font-weight:normal;font-size:40px;line-height:1.25;font-family:sans-serif;white-space:pre;shape-inside:url(#rect152831);fill:#000000;fill-opacity:1;stroke:none" />
    </g>
    <g
       inkscape:label="randy"
       inkscape:groupmode="layer"
       id="g152847"
       style="display:inline">
      <g
         aria-label="RANDY"
         transform="scale(1.01583,0.9844167)"
         id="text152841"
         style="font-size:10.7299px;line-height:0;fill:#ffffff;stroke-width:0.26825">
        <path
           d="m 42.460159,75.924849 h 3.839572 q 0.318699,0 0.561518,-0.159349 0.242819,-0.15935 0.371816,-0.455286 0.136586,-0.295935 0.144174,-0.682927 v 0 q 0,-0.386993 -0.136586,-0.682928 -0.128997,-0.295935 -0.371816,-0.455285 -0.242818,-0.15935 -0.569106,-0.15935 h -3.839572 v -2.003255 h 4.00651 q 0.91057,0 1.601086,0.409757 0.690516,0.409757 1.06992,1.160977 0.379404,0.743633 0.379404,1.730084 v 0 q 0,0.986451 -0.379404,1.737671 -0.379404,0.743633 -1.077508,1.153389 -0.690516,0.409757 -1.593498,0.409757 h -4.00651 z m -0.827101,-4.59838 h 2.079136 v 11.040665 h -2.079136 z m 3.149056,6.260171 2.223309,-0.349052 2.974529,5.129546 h -2.519244 z"
           style="font-weight:bold;font-size:15.5404px;line-height:1.15;font-family:Bahnschrift;-inkscape-font-specification:'Bahnschrift Bold'"
           id="path190995" />
        <path
           d="m 54.540392,71.334057 h 1.320327 l 4.218976,11.033077 H 57.84121 l -2.640654,-7.534969 -2.640654,7.534969 h -2.238485 z m -2.192957,7.261798 h 5.804886 v 2.003255 h -5.804886 z"
           style="font-weight:bold;font-size:15.5404px;line-height:1.15;font-family:Bahnschrift;-inkscape-font-specification:'Bahnschrift Bold'"
           id="path190997" />
        <path
           d="m 61.44555,71.334057 h 2.542009 l 4.105155,8.453128 -0.182114,0.19729 v -8.650418 h 1.988078 v 11.025489 h -2.557185 l -4.089978,-8.32413 0.182114,-0.19729 v 8.52142 H 61.44555 Z"
           style="font-weight:bold;font-size:15.5404px;line-height:1.15;font-family:Bahnschrift;-inkscape-font-specification:'Bahnschrift Bold'"
           id="path190999" />
        <path
           d="m 73.374022,80.363879 h 2.648241 q 1.024392,0 1.58591,-0.493225 0.561519,-0.493226 0.561519,-1.396208 v -3.247701 q 0,-0.902982 -0.561519,-1.396207 -0.561518,-0.493226 -1.58591,-0.493226 h -2.648241 v -2.003255 h 2.602713 q 1.381032,0 2.352307,0.462874 0.978863,0.462873 1.487264,1.350679 0.508402,0.887806 0.508402,2.13984 v 3.126291 q 0,1.19133 -0.493226,2.079136 -0.485637,0.887806 -1.4645,1.381032 -0.978863,0.493225 -2.397835,0.493225 h -2.595125 z m -1.047156,-9.029822 h 2.079135 v 11.033077 h -2.079135 z"
           style="font-weight:bold;font-size:15.5404px;line-height:1.15;font-family:Bahnschrift;-inkscape-font-specification:'Bahnschrift Bold'"
           id="path191001" />
        <path
           d="m 86.258593,78.110218 v 4.256916 h -2.079136 v -4.256916 l -3.2477,-6.776161 h 2.17778 l 2.109488,4.750142 2.109488,-4.750142 h 2.177781 z"
           style="font-weight:bold;font-size:15.5404px;line-height:1.15;font-family:Bahnschrift;-inkscape-font-specification:'Bahnschrift Bold'"
           id="path191003" />
      </g>
      <text
         xml:space="preserve"
         transform="scale(0.26458333)"
         id="text152845"
         style="font-style:normal;font-weight:normal;font-size:40px;line-height:1.25;font-family:sans-serif;white-space:pre;shape-inside:url(#rect152849);fill:#000000;fill-opacity:1;stroke:none" />
    </g>
    <g
       inkscape:groupmode="layer"
       id="layer7"
       inkscape:label="url"
       style="display:inline">
      <g
         aria-label="www.randybickham.com"
         transform="scale(1.0088526,0.99122504)"
         id="text104381"
         style="font-size:12.8125px;line-height:1.25;stroke-width:0.266925">
        <path
           d="m 41.920994,130.48386 h 1.157379 l 0.807037,4.79843 0.944672,-4.79843 H 45.6684 l 0.944671,4.79843 0.807038,-4.79843 h 1.157379 l -1.495209,6.49383 h -0.938415 l -0.894623,-4.47937 -0.888367,4.47937 h -0.944671 z"
           style="font-stretch:condensed;font-family:Bahnschrift;-inkscape-font-specification:'Bahnschrift Condensed';fill:#ffffff"
           id="path191125" />
        <path
           d="m 49.203098,130.48386 h 1.157379 l 0.807038,4.79843 0.944671,-4.79843 h 0.838318 l 0.944672,4.79843 0.807037,-4.79843 h 1.157379 l -1.495208,6.49383 h -0.938416 l -0.894623,-4.47937 -0.888366,4.47937 h -0.944672 z"
           style="font-stretch:condensed;font-family:Bahnschrift;-inkscape-font-specification:'Bahnschrift Condensed';fill:#ffffff"
           id="path191127" />
        <path
           d="m 56.485203,130.48386 h 1.157379 l 0.807037,4.79843 0.944672,-4.79843 h 0.838318 l 0.944671,4.79843 0.807038,-4.79843 h 1.157379 l -1.495209,6.49383 h -0.938415 l -0.894623,-4.47937 -0.888367,4.47937 h -0.944671 z"
           style="font-stretch:condensed;font-family:Bahnschrift;-inkscape-font-specification:'Bahnschrift Condensed';fill:#ffffff"
           id="path191129" />
        <path
           d="m 63.160465,135.72647 h 1.251221 v 1.25122 h -1.251221 z"
           style="font-stretch:condensed;font-family:Bahnschrift;-inkscape-font-specification:'Bahnschrift Condensed';fill:#ffffff"
           id="path191131" />
        <path
           d="m 65.556553,130.48386 h 1.18866 v 6.49383 h -1.18866 z m 2.971649,1.07605 q -0.04379,0 -0.100098,0 -0.05005,0 -0.125122,0 -0.725708,0 -1.138611,0.35659 -0.406646,0.35035 -0.419158,0.9697 l -0.131379,-1.26999 q 0.319062,-0.58807 0.813294,-0.91339 0.500488,-0.33157 1.101074,-0.33157 0,0 0,0 0,0 0,0 z"
           style="font-stretch:condensed;font-family:Bahnschrift;-inkscape-font-specification:'Bahnschrift Condensed';fill:#ffffff"
           id="path191133" />
        <path
           d="m 72.250584,132.22931 q 0,-0.39414 -0.212708,-0.60684 -0.206451,-0.21897 -0.581817,-0.21897 -0.331574,0 -0.519257,0.21897 -0.181427,0.2127 -0.181427,0.60684 h -1.157379 q 0,-0.88837 0.494232,-1.37009 0.494232,-0.48797 1.395111,-0.48797 0.606842,0 1.038513,0.21896 0.431671,0.21896 0.656891,0.63812 0.22522,0.41291 0.22522,1.00098 v 4.74838 h -1.157379 z m -1.182404,4.84222 q -0.800781,0 -1.201172,-0.45044 -0.40039,-0.45669 -0.40039,-1.37008 0,-1.09482 0.500488,-1.63285 0.500488,-0.54428 1.507721,-0.54428 h 0.832062 l 0.08759,1.06354 h -0.913391 q -0.437927,0 -0.656891,0.28153 -0.218964,0.27526 -0.218964,0.83206 0,0.38162 0.187684,0.5693 0.193939,0.18769 0.575561,0.18769 0.444183,0 0.663147,-0.24399 0.218964,-0.25025 0.218964,-0.74448 l 0.131378,0.60059 q -0.0063,0.48172 -0.156403,0.80703 -0.14389,0.32532 -0.437927,0.48798 -0.287781,0.1564 -0.719452,0.1564 z"
           style="font-stretch:condensed;font-family:Bahnschrift;-inkscape-font-specification:'Bahnschrift Condensed';fill:#ffffff"
           id="path191135" />
        <path
           d="m 74.784306,130.48386 h 1.188659 v 6.49383 h -1.188659 z m 2.77771,1.98944 q 0,-0.50049 -0.200196,-0.74448 -0.193939,-0.25024 -0.59433,-0.25024 -0.40039,0 -0.600586,0.2565 -0.193939,0.2565 -0.193939,0.77575 l -0.131378,-0.93216 q 0.218964,-0.60684 0.600586,-0.90713 0.387878,-0.30029 0.888367,-0.30029 0.688171,0 1.051025,0.45044 0.36911,0.45044 0.36911,1.30127 v 4.85473 h -1.188659 z"
           style="font-stretch:condensed;font-family:Bahnschrift;-inkscape-font-specification:'Bahnschrift Condensed';fill:#ffffff"
           id="path191137" />
        <path
           d="m 82.717045,127.88132 h 1.188659 v 9.09637 h -1.188659 z m -1.282501,9.20898 q -0.45044,0 -0.775757,-0.22522 -0.319062,-0.23147 -0.487976,-0.66315 -0.168915,-0.43792 -0.168915,-1.05102 v -2.77145 q 0,-0.63187 0.168915,-1.08231 0.168914,-0.4567 0.487976,-0.68817 0.325317,-0.23773 0.775757,-0.23773 0.444183,0 0.813293,0.30029 0.36911,0.30029 0.600586,0.84457 l -0.131378,0.92591 q 0,-0.3003 -0.09384,-0.51926 -0.08759,-0.21896 -0.2565,-0.33157 -0.168915,-0.11261 -0.412903,-0.11261 -0.356598,0 -0.563049,0.2565 -0.200195,0.2565 -0.200195,0.71319 v 2.65259 q 0,0.41916 0.200195,0.65064 0.206451,0.23147 0.563049,0.23147 0.243988,0 0.412903,-0.10635 0.168915,-0.11261 0.2565,-0.31906 0.09384,-0.21271 0.09384,-0.50675 l 0.08759,0.90714 q -0.175171,0.53802 -0.531769,0.83831 -0.356597,0.29404 -0.838317,0.29404 z"
           style="font-stretch:condensed;font-family:Bahnschrift;-inkscape-font-specification:'Bahnschrift Condensed';fill:#ffffff"
           id="path191139" />
        <path
           d="m 89.279697,130.48386 -1.951904,8.01406 q -0.100098,0.4004 -0.337829,0.66315 -0.231476,0.26276 -0.613099,0.39414 -0.381622,0.13137 -0.913391,0.13137 h -0.175171 v -1.12609 h 0.175171 q 0.437928,0 0.681916,-0.18769 0.243988,-0.18142 0.325317,-0.56305 l 1.607819,-7.32589 z m -4.435577,0 h 1.201172 l 1.395111,5.61172 -0.600586,1.39511 z"
           style="font-stretch:condensed;font-family:Bahnschrift;-inkscape-font-specification:'Bahnschrift Condensed';fill:#ffffff"
           id="path191141" />
        <path
           d="m 92.476566,137.07153 q -0.456695,0 -0.800781,-0.29403 -0.33783,-0.29404 -0.48172,-0.81955 l 0.08759,-1.00724 q 0,0.32532 0.08759,0.5568 0.09384,0.23147 0.262756,0.3566 0.168915,0.11886 0.412903,0.11886 0.356598,0 0.556793,-0.27527 0.206452,-0.28152 0.206452,-0.78201 v -2.43988 q 0,-0.48172 -0.206452,-0.75073 -0.200195,-0.27527 -0.556793,-0.27527 -0.243988,0 -0.412903,0.11886 -0.168914,0.11887 -0.262756,0.34409 -0.08759,0.22522 -0.08759,0.53802 l -0.131379,-0.90087 q 0.206452,-0.56305 0.575562,-0.87586 0.36911,-0.3128 0.813293,-0.3128 0.462952,0 0.788269,0.24398 0.331574,0.23774 0.500489,0.70069 0.168914,0.46295 0.168914,1.11984 v 2.53372 q 0,0.66941 -0.181427,1.13861 -0.17517,0.46921 -0.519256,0.71946 -0.33783,0.24398 -0.81955,0.24398 z m -2.383575,-9.19021 h 1.18866 v 9.09637 h -1.18866 z"
           style="font-stretch:condensed;font-family:Bahnschrift;-inkscape-font-specification:'Bahnschrift Condensed';fill:#ffffff"
           id="path191143" />
        <path
           d="m 95.235508,127.96265 h 1.18866 v 1.18866 h -1.18866 z m 0,2.52121 h 1.18866 v 6.49383 h -1.18866 z"
           style="font-stretch:condensed;font-family:Bahnschrift;-inkscape-font-specification:'Bahnschrift Condensed';fill:#ffffff"
           id="path191145" />
        <path
           d="m 99.627293,137.07153 q -0.625611,0 -1.063538,-0.22522 -0.437927,-0.22522 -0.669403,-0.65689 -0.231476,-0.43792 -0.231476,-1.05102 v -2.74018 q 0,-0.64437 0.231476,-1.09481 0.231476,-0.4567 0.669403,-0.69443 0.444183,-0.23773 1.063538,-0.23773 0.625607,0 1.069797,0.23773 0.44418,0.23773 0.67566,0.70068 0.23147,0.4567 0.23147,1.10108 v 0.2127 h -1.17615 v -0.2127 q 0,-0.44419 -0.20645,-0.68818 -0.20645,-0.24398 -0.575559,-0.24398 -0.375366,0 -0.588074,0.24398 -0.206451,0.23774 -0.206451,0.67566 v 2.74018 q 0,0.39413 0.206451,0.6131 0.212708,0.2127 0.588074,0.2127 0.369109,0 0.575559,-0.22522 0.21271,-0.22522 0.21271,-0.62561 v -0.20645 h 1.1824 v 0.20645 q 0,0.61936 -0.23773,1.05728 -0.23147,0.43793 -0.67566,0.66941 -0.44418,0.23147 -1.076047,0.23147 z"
           style="font-stretch:condensed;font-family:Bahnschrift;-inkscape-font-specification:'Bahnschrift Condensed';fill:#ffffff"
           id="path191147" />
        <path
           d="m 103.18702,134.61914 2.57751,-4.13528 h 1.24496 l -3.77243,5.61798 z m -0.56931,-6.73782 h 1.18866 v 9.09637 h -1.18866 z m 1.81427,5.71182 0.70068,-0.90088 2.13334,4.28543 h -1.30127 z"
           style="font-stretch:condensed;font-family:Bahnschrift;-inkscape-font-specification:'Bahnschrift Condensed';fill:#ffffff"
           id="path191149" />
        <path
           d="m 107.76648,127.88132 h 1.18866 v 9.09637 h -1.18866 z m 2.77771,4.58572 q 0,-0.49423 -0.20019,-0.73822 -0.19394,-0.25024 -0.59433,-0.25024 -0.40039,0 -0.60059,0.2565 -0.19394,0.25024 -0.19394,0.76324 l -0.13138,-0.91965 q 0.21897,-0.60684 0.60059,-0.90713 0.38788,-0.30029 0.88837,-0.30029 0.68817,0 1.05102,0.45044 0.36911,0.45044 0.36911,1.30127 v 4.85473 h -1.18866 z"
           style="font-stretch:condensed;font-family:Bahnschrift;-inkscape-font-specification:'Bahnschrift Condensed';fill:#ffffff"
           id="path191151" />
        <path
           d="m 115.79932,132.22931 q 0,-0.39414 -0.21271,-0.60684 -0.20645,-0.21897 -0.58181,-0.21897 -0.33158,0 -0.51926,0.21897 -0.18143,0.2127 -0.18143,0.60684 h -1.15738 q 0,-0.88837 0.49423,-1.37009 0.49424,-0.48797 1.39512,-0.48797 0.60684,0 1.03851,0.21896 0.43167,0.21896 0.65689,0.63812 0.22522,0.41291 0.22522,1.00098 v 4.74838 h -1.15738 z m -1.1824,4.84222 q -0.80078,0 -1.20118,-0.45044 -0.40039,-0.45669 -0.40039,-1.37008 0,-1.09482 0.50049,-1.63285 0.50049,-0.54428 1.50772,-0.54428 h 0.83207 l 0.0876,1.06354 h -0.91339 q -0.43793,0 -0.65689,0.28153 -0.21897,0.27526 -0.21897,0.83206 0,0.38162 0.18769,0.5693 0.19394,0.18769 0.57556,0.18769 0.44418,0 0.66315,-0.24399 0.21896,-0.25025 0.21896,-0.74448 l 0.13138,0.60059 q -0.006,0.48172 -0.1564,0.80703 -0.14389,0.32532 -0.43793,0.48798 -0.28778,0.1564 -0.71945,0.1564 z"
           style="font-stretch:condensed;font-family:Bahnschrift;-inkscape-font-specification:'Bahnschrift Condensed';fill:#ffffff"
           id="path191153" />
        <path
           d="m 123.80088,132.4733 q 0,-0.50049 -0.2002,-0.74448 -0.20019,-0.24399 -0.60058,-0.24399 -0.37537,0 -0.56305,0.2565 -0.18143,0.25025 -0.18143,0.7695 l -0.16892,-0.89462 q 0.2002,-0.61935 0.58808,-0.93216 0.39413,-0.3128 0.89462,-0.3128 0.4567,0 0.7695,0.20645 0.31906,0.20019 0.48172,0.59433 0.16892,0.38788 0.16892,0.95093 v 4.85473 h -1.18866 z m -5.46784,-1.98944 h 1.18866 v 6.49383 h -1.18866 z m 2.73392,1.98944 q 0,-0.50049 -0.18768,-0.74448 -0.18143,-0.24399 -0.5568,-0.24399 -0.40039,0 -0.60058,0.2565 -0.2002,0.2565 -0.2002,0.7695 l -0.13138,-0.93216 q 0.21897,-0.60684 0.60059,-0.90713 0.38788,-0.30029 0.89462,-0.30029 0.43793,0 0.74448,0.20019 0.30655,0.2002 0.46295,0.59433 0.16266,0.38788 0.16266,0.95093 v 4.86099 h -1.18866 z"
           style="font-stretch:condensed;font-family:Bahnschrift;-inkscape-font-specification:'Bahnschrift Condensed';fill:#ffffff"
           id="path191155" />
        <path
           d="m 126.1344,135.72647 h 1.25122 v 1.25122 h -1.25122 z"
           style="font-stretch:condensed;font-family:Bahnschrift;-inkscape-font-specification:'Bahnschrift Condensed';fill:#ffffff"
           id="path191157" />
        <path
           d="m 130.11954,137.07153 q -0.62561,0 -1.06354,-0.22522 -0.43792,-0.22522 -0.6694,-0.65689 -0.23148,-0.43792 -0.23148,-1.05102 v -2.74018 q 0,-0.64437 0.23148,-1.09481 0.23148,-0.4567 0.6694,-0.69443 0.44419,-0.23773 1.06354,-0.23773 0.62561,0 1.06979,0.23773 0.44419,0.23773 0.67566,0.70068 0.23148,0.4567 0.23148,1.10108 v 0.2127 h -1.17615 v -0.2127 q 0,-0.44419 -0.20645,-0.68818 -0.20645,-0.24398 -0.57556,-0.24398 -0.37537,0 -0.58807,0.24398 -0.20646,0.23774 -0.20646,0.67566 v 2.74018 q 0,0.39413 0.20646,0.6131 0.2127,0.2127 0.58807,0.2127 0.36911,0 0.57556,-0.22522 0.21271,-0.22522 0.21271,-0.62561 v -0.20645 h 1.1824 v 0.20645 q 0,0.61936 -0.23773,1.05728 -0.23148,0.43793 -0.67566,0.66941 -0.44418,0.23147 -1.07605,0.23147 z"
           style="font-stretch:condensed;font-family:Bahnschrift;-inkscape-font-specification:'Bahnschrift Condensed';fill:#ffffff"
           id="path191159" />
        <path
           d="m 134.86167,137.07153 q -0.58808,0 -1.01349,-0.21896 -0.41916,-0.22522 -0.64438,-0.64438 -0.21896,-0.42541 -0.21896,-1.01974 v -2.9654 q 0,-0.58807 0.21896,-1.00097 0.22522,-0.41916 0.64438,-0.63187 0.42541,-0.21896 1.01349,-0.21896 0.58807,0 1.00097,0.21896 0.41916,0.21271 0.63187,0.63187 0.21896,0.4129 0.21896,1.00097 v 2.98416 q 0,0.58808 -0.21896,1.00724 -0.21271,0.41916 -0.63187,0.63812 -0.4129,0.21896 -1.00097,0.21896 z m -0.0125,-1.15738 q 0.31906,0 0.49423,-0.19394 0.18142,-0.20019 0.18142,-0.56304 v -2.88407 q 0,-0.35034 -0.18142,-0.54428 -0.17517,-0.20019 -0.49423,-0.20019 -0.31281,0 -0.49424,0.20019 -0.18142,0.19394 -0.18142,0.54428 v 2.88407 q 0,0.35659 0.17517,0.55679 0.18142,0.20019 0.50049,0.20019 z"
           style="font-stretch:condensed;font-family:Bahnschrift;-inkscape-font-specification:'Bahnschrift Condensed';fill:#ffffff"
           id="path191161" />
        <path
           d="m 143.43253,132.4733 q 0,-0.50049 -0.2002,-0.74448 -0.20019,-0.24399 -0.60058,-0.24399 -0.37537,0 -0.56305,0.2565 -0.18143,0.25025 -0.18143,0.7695 l -0.16891,-0.89462 q 0.20019,-0.61935 0.58807,-0.93216 0.39414,-0.3128 0.89462,-0.3128 0.4567,0 0.7695,0.20645 0.31907,0.20019 0.48172,0.59433 0.16892,0.38788 0.16892,0.95093 v 4.85473 h -1.18866 z m -5.46784,-1.98944 h 1.18866 v 6.49383 h -1.18866 z m 2.73392,1.98944 q 0,-0.50049 -0.18768,-0.74448 -0.18143,-0.24399 -0.55679,-0.24399 -0.40039,0 -0.60059,0.2565 -0.2002,0.2565 -0.2002,0.7695 l -0.13137,-0.93216 q 0.21896,-0.60684 0.60058,-0.90713 0.38788,-0.30029 0.89463,-0.30029 0.43792,0 0.74447,0.20019 0.30655,0.2002 0.46295,0.59433 0.16266,0.38788 0.16266,0.95093 v 4.86099 h -1.18866 z"
           style="font-stretch:condensed;font-family:Bahnschrift;-inkscape-font-specification:'Bahnschrift Condensed';fill:#ffffff"
           id="path191163" />
      </g>
    </g>
    <rect
       style="fill:none;fill-opacity:1;stroke:#ffffff;stroke-width:1;stroke-miterlimit:4;stroke-dasharray:none;stroke-opacity:1"
       id="rect62654"
       width="114.58264"
       height="84.796577"
       x="36.415642"
       y="60.710144" />
  </g>
</svg>
